<svg width="36" height="36" viewBox="0 0 36 36" fill="none" xmlns="http://www.w3.org/2000/svg">
<rect width="36" height="36" rx="4" fill="#00A63E"/>
<path d="M22 24L24 26L28 22M18 21H14C12.1362 21 11.2044 21 10.4693 21.3045C9.48915 21.7105 8.71046 22.4892 8.30448 23.4693C8 24.2044 8 25.1362 8 27M21.5 9.29076C22.9659 9.88415 24 11.3213 24 13C24 14.6787 22.9659 16.1159 21.5 16.7092M19.5 13C19.5 15.2091 17.7091 17 15.5 17C13.2909 17 11.5 15.2091 11.5 13C11.5 10.7909 13.2909 9 15.5 9C17.7091 9 19.5 10.7909 19.5 13Z" stroke="white" stroke-width="1.5" stroke-linecap="round" stroke-linejoin="round"/>
</svg>
