<svg width="44" height="44" viewBox="0 0 44 44" fill="none" xmlns="http://www.w3.org/2000/svg">
<rect width="44" height="44" rx="4" fill="#0081FF" fill-opacity="0.2"/>
<path d="M21.9993 22.0004H22.0076M24.9455 24.9466C21.0403 28.8519 16.5554 30.6986 14.9282 29.0714C13.301 27.4442 15.1477 22.9593 19.053 19.0541C22.9582 15.1488 27.4432 13.3021 29.0703 14.9293C30.6975 16.5565 28.8508 21.0414 24.9455 24.9466ZM24.9455 19.0539C28.8508 22.9592 30.6975 27.4441 29.0703 29.0713C27.4431 30.6985 22.9582 28.8517 19.053 24.9465C15.1477 21.0412 13.301 16.5563 14.9282 14.9291C16.5554 13.302 21.0403 15.1487 24.9455 19.0539ZM22.4159 22.0004C22.4159 22.2305 22.2294 22.417 21.9993 22.417C21.7692 22.417 21.5826 22.2305 21.5826 22.0004C21.5826 21.7702 21.7692 21.5837 21.9993 21.5837C22.2294 21.5837 22.4159 21.7702 22.4159 22.0004Z" stroke="#0081FF" stroke-width="2" stroke-linecap="round" stroke-linejoin="round"/>
</svg>
