<svg width="20" height="20" viewBox="0 0 20 20" fill="none" xmlns="http://www.w3.org/2000/svg">
<path d="M6.66699 1.66602V4.16602" stroke="#898989" stroke-width="1.3" stroke-miterlimit="10" stroke-linecap="round" stroke-linejoin="round"/>
<path d="M13.333 1.66602V4.16602" stroke="#898989" stroke-width="1.3" stroke-miterlimit="10" stroke-linecap="round" stroke-linejoin="round"/>
<path d="M13.3333 2.91602C16.1083 3.06602 17.5 4.12435 17.5 8.04102V13.191C17.5 16.6243 16.6667 18.341 12.5 18.341H7.5C3.33333 18.341 2.5 16.6243 2.5 13.191V8.04102C2.5 4.12435 3.89167 3.07435 6.66667 2.91602H13.3333Z" stroke="#898989" stroke-width="1.3" stroke-miterlimit="10" stroke-linecap="round" stroke-linejoin="round"/>
<path d="M17.2913 14.666H2.70801" stroke="#898989" stroke-width="1.3" stroke-miterlimit="10" stroke-linecap="round" stroke-linejoin="round"/>
<path d="M10.0003 6.875C8.97533 6.875 8.10866 7.43333 8.10866 8.51667C8.10866 9.03333 8.35033 9.425 8.71699 9.675C8.20866 9.975 7.91699 10.4583 7.91699 11.025C7.91699 12.0583 8.70866 12.7 10.0003 12.7C11.2837 12.7 12.0837 12.0583 12.0837 11.025C12.0837 10.4583 11.792 9.96667 11.2753 9.675C11.6503 9.41667 11.8837 9.03333 11.8837 8.51667C11.8837 7.43333 11.0253 6.875 10.0003 6.875ZM10.0003 9.24167C9.56699 9.24167 9.25033 8.98333 9.25033 8.575C9.25033 8.15833 9.56699 7.91667 10.0003 7.91667C10.4337 7.91667 10.7503 8.15833 10.7503 8.575C10.7503 8.98333 10.4337 9.24167 10.0003 9.24167ZM10.0003 11.6667C9.45033 11.6667 9.05033 11.3917 9.05033 10.8917C9.05033 10.3917 9.45033 10.125 10.0003 10.125C10.5503 10.125 10.9503 10.4 10.9503 10.8917C10.9503 11.3917 10.5503 11.6667 10.0003 11.6667Z" fill="#898989"/>
</svg>
