<svg width="36" height="36" viewBox="0 0 36 36" fill="none" xmlns="http://www.w3.org/2000/svg">
<rect width="36" height="36" rx="4" fill="#FF6269"/>
<path d="M22.5 22L27.5 27M27.5 22L22.5 27M18 21.5H13.5C12.1044 21.5 11.4067 21.5 10.8389 21.6722C9.56045 22.06 8.56004 23.0605 8.17224 24.3389C8 24.9067 8 25.6044 8 27M20.5 13.5C20.5 15.9853 18.4853 18 16 18C13.5147 18 11.5 15.9853 11.5 13.5C11.5 11.0147 13.5147 9 16 9C18.4853 9 20.5 11.0147 20.5 13.5Z" stroke="white" stroke-width="1.5" stroke-linecap="round" stroke-linejoin="round"/>
</svg>
