<svg width="20" height="20" viewBox="0 0 20 20" fill="none" xmlns="http://www.w3.org/2000/svg">
<path d="M5 14.1673C5 14.4601 5 14.6065 5.01306 14.7337C5.12146 15.7902 5.8855 16.6629 6.91838 16.91C7.04279 16.9397 7.18792 16.9591 7.47807 16.9978L12.9713 17.7302C14.535 17.9387 15.3169 18.0429 15.9237 17.8016C16.4565 17.5898 16.9002 17.2013 17.1806 16.7012C17.5 16.1316 17.5 15.3428 17.5 13.7653V6.23608C17.5 4.65854 17.5 3.86978 17.1806 3.30017C16.9002 2.80007 16.4565 2.41155 15.9237 2.19971C15.3169 1.95843 14.535 2.06267 12.9713 2.27117L7.47807 3.0036C7.18788 3.0423 7.04279 3.06164 6.91838 3.0914C5.8855 3.33848 5.12145 4.21116 5.01306 5.26763C5 5.39488 5 5.54126 5 5.83401M10 6.66735L13.3333 10.0007M13.3333 10.0007L10 13.334M13.3333 10.0007H2.5" stroke="#898989" stroke-width="1.5" stroke-linecap="round" stroke-linejoin="round"/>
</svg>
